<?xml version="1.0" encoding="utf-8"?>
<!-- Designed by Vexels.com - 2019 All Rights Reserved - https://vexels.com/terms-and-conditions/  -->
<svg version="1.1" id="Layer_1" xmlns="http://www.w3.org/2000/svg" xmlns:xlink="http://www.w3.org/1999/xlink" x="0px" y="0px"
	 viewBox="0 0 1200 1200" enable-background="new 0 0 1200 1200" xml:space="preserve">
<path fill="#1D1D1E" d="M1137.933,691.969c-0.231-0.182-0.465-0.36-0.702-0.533c-3.362-2.454-7.372-4.351-10.978-6.46
	c-10.512-6.145-21.024-12.291-31.536-18.436c-19.25-11.254-38.501-22.508-57.751-33.762c-0.609-0.356-1.234-0.831-1.888-1.104
	c-0.005-0.002-106.111-44.345-144.12-63.349c-38.009-19.005-61.765-26.923-61.765-26.923h-53.847c0,0-258.148,0-258.148,0
	c-24.867-0.487-49.732-1.089-74.589-1.937c-24.428-0.834-49.149-0.993-73.386-4.286c-12.848-1.746-25.578-4.249-38.264-6.911
	c-8-1.679-11.965-4.616-17.437-10.362c-8.369-8.788-16.738-17.575-25.107-26.363c-11.303-11.868-22.605-23.735-33.908-35.603
	c-11.033-11.584-22.065-23.169-33.098-34.753c-7.559-7.937-15.119-15.875-22.678-23.812c-1.538-1.615-3.075-3.229-4.613-4.844
	H89.593l41.177,148.871L50,554.072v185.296l39.593,3.167v17.421c22.172,11.086,28.507,47.512,28.507,47.512h98.191h104.526
	c0,0,220.139,0,280.32,0s152.038-15.837,177.378-23.756c25.34-7.919,50.679-25.164,50.679-25.164l237.559-0.175
	c0,0,42.76,3.167,71.268-17.421C1154.46,729.08,1153.547,704.28,1137.933,691.969z M394.461,653.847
	c-18.805,0-34.05-15.245-34.05-34.05c0-18.805,15.245-34.05,34.05-34.05c18.805,0,34.05,15.245,34.05,34.05
	C428.511,638.602,413.266,653.847,394.461,653.847z M530.661,653.847c-18.805,0-34.05-15.245-34.05-34.05
	c0-18.805,15.245-34.05,34.05-34.05c18.806,0,34.051,15.245,34.051,34.05C564.712,638.602,549.467,653.847,530.661,653.847z
	 M666.862,653.847c-18.805,0-34.05-15.245-34.05-34.05c0-18.805,15.245-34.05,34.05-34.05c18.805,0,34.05,15.245,34.05,34.05
	C700.912,638.602,685.668,653.847,666.862,653.847z"/>
</svg>
